<?xml version="1.0" encoding="UTF-8" standalone="no"?>
<!-- Created with Inkscape (http://www.inkscape.org/) -->

<svg
   width="1.8997475in"
   height="0.53759956in"
   viewBox="0 0 48.253586 13.655029"
   version="1.1"
   id="svg5"
   inkscape:version="1.2.1 (9c6d41e, 2022-07-14)"
   sodipodi:docname="klokku-logo.svg"
   xmlns:inkscape="http://www.inkscape.org/namespaces/inkscape"
   xmlns:sodipodi="http://sodipodi.sourceforge.net/DTD/sodipodi-0.dtd"
   xmlns="http://www.w3.org/2000/svg"
   xmlns:svg="http://www.w3.org/2000/svg">
  <sodipodi:namedview
     id="namedview7"
     pagecolor="#ffffff"
     bordercolor="#000000"
     borderopacity="0.25"
     inkscape:showpageshadow="2"
     inkscape:pageopacity="0.0"
     inkscape:pagecheckerboard="0"
     inkscape:deskcolor="#d1d1d1"
     inkscape:document-units="mm"
     showgrid="false"
     inkscape:zoom="3.2630683"
     inkscape:cx="911.71858"
     inkscape:cy="1952.9165"
     inkscape:window-width="1603"
     inkscape:window-height="1205"
     inkscape:window-x="753"
     inkscape:window-y="1079"
     inkscape:window-maximized="0"
     inkscape:current-layer="g4719-4" />
  <defs
     id="defs2" />
  <g
     inkscape:label="Layer 1"
     inkscape:groupmode="layer"
     id="layer1"
     transform="translate(-228.8596,-456.495)">
    <g
       id="g7156">
      <g
         aria-label="Klo    u"
         id="text236-2-6-2-7-0-6-2-1-5-9-4-1-4-06-4"
         style="font-size:17.9917px;font-family:Comfortaa;-inkscape-font-specification:Comfortaa;fill:#535353;stroke:#6acbda;stroke-width:3.49999;stroke-linecap:square;stroke-linejoin:round;stroke-dashoffset:3">
        <path
           d="m 230.47886,458.41946 q 0,-0.4498 -0.25188,-0.68369 -0.23389,-0.23389 -0.55774,-0.23389 -0.32386,0 -0.57574,0.23389 -0.23389,0.23389 -0.23389,0.68369 0,0.35983 0,0.77364 0,0.41381 0,0.82762 0,0.41381 0,0.77364 0,0.98954 0,1.88913 0,0.89958 0,1.70921 0,0.79163 0,1.52929 0,0.71967 0,1.38536 0,0.32386 0,0.6657 0,0.32385 0,0.6477 0,0.32385 0,0.59373 0,0.44979 0.23389,0.68368 0.25188,0.23389 0.57574,0.23389 0.32385,0 0.55774,-0.23389 0.25188,-0.23389 0.25188,-0.68368 0,-0.32386 0,-0.61172 0,-0.28787 0,-0.59373 0,-0.32385 0,-0.70168 0,-0.98954 0,-1.87113 0,-0.89959 0,-1.70921 0,-0.80963 0,-1.5293 0,-0.73766 0,-1.40335 0,-0.4318 0,-0.80963 0,-0.37782 0,-0.75565 0,-0.37782 0,-0.80962 z m 6.62095,0.59372 q 0.32385,-0.30586 0.32385,-0.62971 0,-0.34184 -0.2159,-0.57573 -0.2159,-0.23389 -0.55775,-0.25189 -0.32385,-0.036 -0.66569,0.26988 -0.26987,0.25188 -0.53975,0.50377 -0.26987,0.25188 -0.53975,0.50376 -0.25188,0.2339 -0.53975,0.48578 -0.26988,0.23389 -0.53975,0.48578 -0.23389,0.19791 -0.57574,0.50376 -0.34184,0.28787 -0.73766,0.61172 -0.37782,0.32385 -0.71966,0.62971 -0.34185,0.28787 -0.55775,0.48578 -0.57573,0.48577 -0.82762,0.89958 -0.25188,0.39582 -0.1979,0.77365 0.054,0.37782 0.37782,0.80962 0.32385,0.41381 0.89959,0.91758 0.35983,0.34184 0.91757,0.8636 0.55775,0.50377 1.20545,1.11549 0.6477,0.61171 1.2954,1.24142 0.6477,0.61172 1.16946,1.13348 0.32385,0.32385 0.6477,0.30586 0.34184,-0.018 0.57574,-0.23389 0.23389,-0.2339 0.23389,-0.55775 0.018,-0.34184 -0.30586,-0.66569 -0.55774,-0.53975 -1.20544,-1.15147 -0.64771,-0.62971 -1.3134,-1.24143 -0.6477,-0.6297 -1.20544,-1.15146 -0.55775,-0.52176 -0.93557,-0.84561 -0.26988,-0.25189 -0.35984,-0.4318 -0.09,-0.17992 0,-0.35984 0.09,-0.17992 0.35984,-0.41381 0.30586,-0.25188 0.71967,-0.62971 0.4318,-0.37782 0.84561,-0.73766 0.4318,-0.37782 0.73766,-0.6477 0.37782,-0.32385 0.73766,-0.6477 0.37782,-0.34184 0.73766,-0.68368 0.37782,-0.34185 0.75565,-0.68369 z"
           style="font-weight:bold;font-family:'Tilt Neon';-inkscape-font-specification:'Tilt Neon';fill:#f0f0f0;stroke:none;stroke-width:3.5"
           id="path7158" />
        <path
           d="m 239.31278,469.21448 q 0,0.44979 0.23389,0.68368 0.25188,0.23389 0.57574,0.23389 0.32385,0 0.55774,-0.23389 0.25188,-0.23389 0.25188,-0.68368 0,-0.4498 0,-0.84561 0,-0.39582 0,-0.79164 0,-0.39582 0,-0.84561 0,-1.42134 0,-2.64478 0,-1.24143 0,-2.32093 0,-1.0795 0,-2.03306 0,-0.39582 0,-0.75565 0,-0.37783 0,-0.73766 0,-0.37783 0,-0.80963 0,-0.44979 -0.25188,-0.68368 -0.23389,-0.23389 -0.55774,-0.23389 -0.32386,0 -0.57574,0.23389 -0.23389,0.23389 -0.23389,0.68368 0,0.52176 0,1.16946 0,0.6477 0,1.13348 0,2.14101 0,3.85022 0,1.70921 0,3.14855 0,0.37783 0,0.80963 0,0.4318 0,0.8636 0,0.4318 0,0.80963 z"
           style="font-weight:bold;font-family:'Tilt Neon';-inkscape-font-specification:'Tilt Neon';fill:#f0f0f0;stroke:none;stroke-width:3.5"
           id="path7160" />
        <path
           d="m 246.04166,469.95213 q 0.4318,0.14394 0.71966,-0.018 0.30586,-0.16192 0.41381,-0.46778 0.10795,-0.30586 -0.036,-0.59373 -0.14393,-0.30586 -0.57573,-0.46778 -0.32385,-0.10795 -0.59373,-0.25189 -0.26988,-0.14393 -0.50377,-0.34184 -0.2159,-0.19791 -0.41381,-0.48577 -0.25188,-0.37783 -0.39581,-0.84561 -0.12595,-0.48578 -0.12595,-1.02553 0,-0.88159 0.35984,-1.56528 0.35983,-0.70167 1.00753,-1.0795 0.6477,-0.39582 1.49331,-0.39582 0.84561,0 1.49332,0.39582 0.6477,0.37783 1.00753,1.0795 0.37783,0.68369 0.37783,1.56528 0,0.53975 -0.14394,1.00754 -0.12594,0.46778 -0.37782,0.8456 -0.30586,0.43181 -0.6477,0.68369 -0.34185,0.23389 -0.8816,0.41381 -0.4318,0.16192 -0.57573,0.46778 -0.14394,0.28787 -0.036,0.59373 0.10795,0.30586 0.39582,0.46778 0.30586,0.16193 0.71967,0.018 0.80963,-0.28786 1.36737,-0.68368 0.55774,-0.39582 0.98954,-1.06151 0.39582,-0.57573 0.59373,-1.25942 0.2159,-0.70168 0.2159,-1.49331 0,-1.34938 -0.59373,-2.3929 -0.57573,-1.06151 -1.60126,-1.65523 -1.00753,-0.61172 -2.30294,-0.61172 -1.27741,0 -2.30293,0.61172 -1.00754,0.59372 -1.60126,1.65523 -0.57574,1.04352 -0.57574,2.3929 0,0.80963 0.2159,1.5113 0.2159,0.70168 0.59373,1.25942 0.4318,0.6477 0.98954,1.06151 0.57574,0.39582 1.33139,0.66569 z"
           style="font-weight:bold;font-family:'Tilt Neon';-inkscape-font-specification:'Tilt Neon';fill:#f0f0f0;stroke:none;stroke-width:3.5"
           id="path7162" />
        <path
           d="m 270.70815,461.69394 q 0,-0.44979 -0.25189,-0.66569 -0.23389,-0.23389 -0.55774,-0.23389 -0.32385,0 -0.57574,0.23389 -0.23389,0.2159 -0.23389,0.66569 0,0.61172 0,1.42135 0,0.79163 0,1.60126 0,0.80963 0,1.49331 0,1.24143 0.4498,2.12302 0.46778,0.8816 1.27741,1.34938 0.82761,0.44979 1.88912,0.44979 0.95356,0 1.7452,-0.34184 0.80963,-0.34184 1.40335,-0.91758 0.59373,-0.59372 0.91758,-1.34937 0.34184,-0.77365 0.34184,-1.61926 0,-0.32385 0,-0.82762 0,-0.52176 0,-1.11548 0,-0.59373 0,-1.18745 0,-0.59373 0,-1.07951 0,-0.35983 -0.16192,-0.57573 -0.16193,-0.2159 -0.41381,-0.28787 -0.2339,-0.072 -0.48578,0 -0.23389,0.072 -0.39582,0.28787 -0.16192,0.2159 -0.16192,0.57573 0,0.46779 0,1.15147 0,0.68369 0,1.45733 0,0.77364 0,1.5293 0,0.73766 0,1.34937 0,0.28787 0,0.61172 0,0.32385 0,0.68369 0,0.35983 0,0.77364 0,0.44979 0.23389,0.68368 0.25188,0.2159 0.57573,0.2159 0.32385,0 0.55775,-0.2159 0.25188,-0.23389 0.25188,-0.68368 0,-0.39582 0,-0.68369 0,-0.30585 0,-0.62971 0,-0.32385 0,-0.75565 0,-0.41381 0,-1.13347 0,-0.71967 0,-1.54729 0,-0.82762 0,-1.56528 0,-0.75565 0,-1.24143 0,-0.35983 -0.16192,-0.57573 -0.16193,-0.2159 -0.41381,-0.28787 -0.2339,-0.072 -0.48578,0 -0.23389,0.072 -0.39582,0.28787 -0.16192,0.2159 -0.16192,0.57573 0,0.46779 0,1.0975 0,0.62971 0,1.25942 0,0.62971 0,1.13347 0,0.50377 0,0.71967 0,0.53975 -0.2159,1.00754 -0.19791,0.46778 -0.57574,0.82762 -0.37782,0.35983 -0.89958,0.57573 -0.50377,0.19791 -1.0975,0.19791 -0.6477,0 -1.09749,-0.25188 -0.44979,-0.26988 -0.68368,-0.77365 -0.2159,-0.52176 -0.2159,-1.27741 0,-0.82762 0,-1.61925 0,-0.79164 0,-1.5293 0,-0.73766 0,-1.36737 z"
           style="font-weight:bold;font-family:'Tilt Neon';-inkscape-font-specification:'Tilt Neon';fill:#f0f0f0;stroke:none;stroke-width:3.5"
           id="path7164" />
      </g>
      <path
         style="fill:none;stroke:#00bcd4;stroke-width:1.6;stroke-linecap:round;stroke-linejoin:round;stroke-dasharray:none;stroke-dashoffset:3;stroke-opacity:1"
         d="m 259.08483,457.295 -4.71337,3.473 4.96144,4.21722"
         id="path756-1-8-7" />
      <path
         style="fill:none;stroke:#00bcd4;stroke-width:1.6;stroke-linecap:round;stroke-linejoin:round;stroke-dasharray:none;stroke-dashoffset:3;stroke-opacity:1"
         d="m 265.24152,457.295 -4.71337,3.473 4.96144,4.21722"
         id="path756-9-8-51-7" />
    </g>
  </g>
</svg>
