<svg width="235" height="36" viewBox="0 0 235 36" fill="none" xmlns="http://www.w3.org/2000/svg">
<path d="M16.21 32.21C24.058 32.21 30.42 25.848 30.42 18C30.42 10.152 24.058 3.79001 16.21 3.79001C8.36203 3.79001 2 10.152 2 18C2 25.848 8.36203 32.21 16.21 32.21Z" stroke="#6ACBDA" stroke-width="3.23" stroke-linecap="square"/>
<path d="M3.65741 24.0436L8.19087 15.8163L16.7541 22.5325L23.4703 11.6186L30.0186 17.3274" stroke="#6ACBDA" stroke-width="3.23" stroke-linecap="square" stroke-linejoin="round"/>
<path d="M49.608 27C49.32 27 49.1 26.928 48.948 26.784C48.796 26.632 48.72 26.412 48.72 26.124V12.768H43.92C43.632 12.768 43.412 12.696 43.26 12.552C43.108 12.4 43.032 12.18 43.032 11.892C43.032 11.604 43.108 11.384 43.26 11.232C43.412 11.08 43.632 11.004 43.92 11.004H55.296C55.584 11.004 55.8 11.08 55.944 11.232C56.096 11.384 56.172 11.604 56.172 11.892C56.172 12.18 56.096 12.4 55.944 12.552C55.8 12.696 55.584 12.768 55.296 12.768H50.484V26.124C50.484 26.396 50.408 26.612 50.256 26.772C50.104 26.924 49.888 27 49.608 27ZM60.0872 27C59.7912 27 59.5672 26.928 59.4152 26.784C59.2712 26.632 59.1992 26.408 59.1992 26.112V11.892C59.1992 11.588 59.2712 11.364 59.4152 11.22C59.5672 11.076 59.7912 11.004 60.0872 11.004C60.3832 11.004 60.6032 11.076 60.7472 11.22C60.8912 11.364 60.9632 11.588 60.9632 11.892V26.112C60.9632 26.408 60.8912 26.632 60.7472 26.784C60.6032 26.928 60.3832 27 60.0872 27ZM66.6731 27C66.0811 27 65.7851 26.704 65.7851 26.112V11.88C65.7851 11.288 66.0811 10.992 66.6731 10.992C67.0651 10.992 67.3891 11.184 67.6451 11.568L73.4171 20.292L73.0331 20.352L78.8291 11.568C79.0691 11.184 79.4251 10.992 79.8971 10.992C80.3851 10.992 80.6291 11.288 80.6291 11.88V26.112C80.6291 26.704 80.3371 27 79.7531 27C79.1611 27 78.8651 26.704 78.8651 26.112V13.644L79.4051 13.824L74.1971 21.588C73.9411 21.964 73.5851 22.152 73.1291 22.152C72.7931 22.152 72.4971 21.964 72.2411 21.588L67.0331 13.824L67.5491 13.98V26.112C67.5491 26.704 67.2571 27 66.6731 27ZM86.3372 27C85.7452 27 85.4492 26.704 85.4492 26.112V11.88C85.4492 11.288 85.7452 10.992 86.3372 10.992H95.0732C95.6652 10.992 95.9612 11.288 95.9612 11.88C95.9612 12.464 95.6652 12.756 95.0732 12.756H87.2132V18.036H92.2412C92.8332 18.036 93.1292 18.328 93.1292 18.912C93.1292 19.504 92.8332 19.8 92.2412 19.8H87.2132V25.236H95.0732C95.6652 25.236 95.9612 25.528 95.9612 26.112C95.9612 26.704 95.6652 27 95.0732 27H86.3372ZM105.701 26.916C105.141 26.692 104.973 26.304 105.197 25.752L110.993 11.688C111.193 11.224 111.521 10.992 111.977 10.992H112.037C112.493 11.016 112.805 11.248 112.973 11.688L118.829 25.752C119.053 26.304 118.893 26.692 118.349 26.916C117.797 27.132 117.413 26.972 117.197 26.436L115.793 23.076H108.197L106.841 26.436C106.617 26.98 106.237 27.14 105.701 26.916ZM108.893 21.312H115.073L111.941 13.788L108.893 21.312ZM125.505 26.988C124.121 26.988 123.057 26.7 122.313 26.124C121.577 25.54 121.137 24.636 120.993 23.412C120.969 23.116 121.033 22.892 121.185 22.74C121.345 22.58 121.569 22.5 121.857 22.5C122.145 22.5 122.357 22.572 122.493 22.716C122.637 22.86 122.729 23.076 122.769 23.364C122.865 24.068 123.117 24.556 123.525 24.828C123.941 25.092 124.601 25.224 125.505 25.224H128.961C130.033 25.224 130.765 25.028 131.157 24.636C131.557 24.236 131.757 23.512 131.757 22.464C131.757 21.4 131.553 20.668 131.145 20.268C130.745 19.86 130.017 19.656 128.961 19.656H125.889C124.409 19.656 123.313 19.3 122.601 18.588C121.897 17.876 121.545 16.784 121.545 15.312C121.545 13.84 121.893 12.752 122.589 12.048C123.293 11.344 124.385 10.992 125.865 10.992H128.889C130.185 10.992 131.181 11.268 131.877 11.82C132.581 12.364 133.005 13.208 133.149 14.352C133.181 14.648 133.117 14.876 132.957 15.036C132.805 15.188 132.581 15.264 132.285 15.264C132.005 15.264 131.793 15.192 131.649 15.048C131.505 14.896 131.417 14.68 131.385 14.4C131.289 13.784 131.049 13.356 130.665 13.116C130.289 12.876 129.697 12.756 128.889 12.756H125.865C124.873 12.756 124.197 12.94 123.837 13.308C123.485 13.668 123.309 14.336 123.309 15.312C123.309 16.288 123.489 16.964 123.849 17.34C124.217 17.708 124.897 17.892 125.889 17.892H128.961C130.513 17.892 131.661 18.264 132.405 19.008C133.149 19.752 133.521 20.904 133.521 22.464C133.521 24.016 133.149 25.16 132.405 25.896C131.661 26.624 130.513 26.988 128.961 26.988H125.505ZM141.887 26.988C140.503 26.988 139.439 26.7 138.695 26.124C137.959 25.54 137.519 24.636 137.375 23.412C137.351 23.116 137.415 22.892 137.567 22.74C137.727 22.58 137.951 22.5 138.239 22.5C138.527 22.5 138.739 22.572 138.875 22.716C139.019 22.86 139.111 23.076 139.151 23.364C139.247 24.068 139.499 24.556 139.907 24.828C140.323 25.092 140.983 25.224 141.887 25.224H145.343C146.415 25.224 147.147 25.028 147.539 24.636C147.939 24.236 148.139 23.512 148.139 22.464C148.139 21.4 147.935 20.668 147.527 20.268C147.127 19.86 146.399 19.656 145.343 19.656H142.271C140.791 19.656 139.695 19.3 138.983 18.588C138.279 17.876 137.927 16.784 137.927 15.312C137.927 13.84 138.275 12.752 138.971 12.048C139.675 11.344 140.767 10.992 142.247 10.992H145.271C146.567 10.992 147.563 11.268 148.259 11.82C148.963 12.364 149.387 13.208 149.531 14.352C149.563 14.648 149.499 14.876 149.339 15.036C149.187 15.188 148.963 15.264 148.667 15.264C148.387 15.264 148.175 15.192 148.031 15.048C147.887 14.896 147.799 14.68 147.767 14.4C147.671 13.784 147.431 13.356 147.047 13.116C146.671 12.876 146.079 12.756 145.271 12.756H142.247C141.255 12.756 140.579 12.94 140.219 13.308C139.867 13.668 139.691 14.336 139.691 15.312C139.691 16.288 139.871 16.964 140.231 17.34C140.599 17.708 141.279 17.892 142.271 17.892H145.343C146.895 17.892 148.043 18.264 148.787 19.008C149.531 19.752 149.903 20.904 149.903 22.464C149.903 24.016 149.531 25.16 148.787 25.896C148.043 26.624 146.895 26.988 145.343 26.988H141.887ZM155.126 27C154.83 27 154.606 26.928 154.454 26.784C154.31 26.632 154.238 26.408 154.238 26.112V11.892C154.238 11.588 154.31 11.364 154.454 11.22C154.606 11.076 154.83 11.004 155.126 11.004C155.422 11.004 155.642 11.076 155.786 11.22C155.93 11.364 156.002 11.588 156.002 11.892V26.112C156.002 26.408 155.93 26.632 155.786 26.784C155.642 26.928 155.422 27 155.126 27ZM164.856 26.988C163.472 26.988 162.408 26.7 161.664 26.124C160.928 25.54 160.488 24.636 160.344 23.412C160.32 23.116 160.384 22.892 160.536 22.74C160.696 22.58 160.92 22.5 161.208 22.5C161.496 22.5 161.708 22.572 161.844 22.716C161.988 22.86 162.08 23.076 162.12 23.364C162.216 24.068 162.468 24.556 162.876 24.828C163.292 25.092 163.952 25.224 164.856 25.224H168.312C169.384 25.224 170.116 25.028 170.508 24.636C170.908 24.236 171.108 23.512 171.108 22.464C171.108 21.4 170.904 20.668 170.496 20.268C170.096 19.86 169.368 19.656 168.312 19.656H165.24C163.76 19.656 162.664 19.3 161.952 18.588C161.248 17.876 160.896 16.784 160.896 15.312C160.896 13.84 161.244 12.752 161.94 12.048C162.644 11.344 163.736 10.992 165.216 10.992H168.24C169.536 10.992 170.532 11.268 171.228 11.82C171.932 12.364 172.356 13.208 172.5 14.352C172.532 14.648 172.468 14.876 172.308 15.036C172.156 15.188 171.932 15.264 171.636 15.264C171.356 15.264 171.144 15.192 171 15.048C170.856 14.896 170.768 14.68 170.736 14.4C170.64 13.784 170.4 13.356 170.016 13.116C169.64 12.876 169.048 12.756 168.24 12.756H165.216C164.224 12.756 163.548 12.94 163.188 13.308C162.836 13.668 162.66 14.336 162.66 15.312C162.66 16.288 162.84 16.964 163.2 17.34C163.568 17.708 164.248 17.892 165.24 17.892H168.312C169.864 17.892 171.012 18.264 171.756 19.008C172.5 19.752 172.872 20.904 172.872 22.464C172.872 24.016 172.5 25.16 171.756 25.896C171.012 26.624 169.864 26.988 168.312 26.988H164.856ZM180.788 27C180.5 27 180.28 26.928 180.128 26.784C179.976 26.632 179.9 26.412 179.9 26.124V12.768H175.1C174.812 12.768 174.592 12.696 174.44 12.552C174.288 12.4 174.212 12.18 174.212 11.892C174.212 11.604 174.288 11.384 174.44 11.232C174.592 11.08 174.812 11.004 175.1 11.004H186.476C186.764 11.004 186.98 11.08 187.124 11.232C187.276 11.384 187.352 11.604 187.352 11.892C187.352 12.18 187.276 12.4 187.124 12.552C186.98 12.696 186.764 12.768 186.476 12.768H181.664V26.124C181.664 26.396 181.588 26.612 181.436 26.772C181.284 26.924 181.068 27 180.788 27ZM187.545 26.916C186.985 26.692 186.817 26.304 187.041 25.752L192.837 11.688C193.037 11.224 193.365 10.992 193.821 10.992H193.881C194.337 11.016 194.649 11.248 194.817 11.688L200.673 25.752C200.897 26.304 200.737 26.692 200.193 26.916C199.641 27.132 199.257 26.972 199.041 26.436L197.637 23.076H190.041L188.685 26.436C188.461 26.98 188.081 27.14 187.545 26.916ZM190.737 21.312H196.917L193.785 13.788L190.737 21.312ZM204.931 27C204.339 27 204.043 26.704 204.043 26.112V11.88C204.043 11.288 204.339 10.992 204.931 10.992C205.235 10.992 205.531 11.168 205.819 11.52L215.635 24.156H215.203V11.88C215.203 11.288 215.499 10.992 216.091 10.992C216.675 10.992 216.967 11.288 216.967 11.88V26.112C216.967 26.704 216.675 27 216.091 27C215.771 27 215.475 26.824 215.203 26.472L205.375 13.836H205.807V26.112C205.807 26.704 205.515 27 204.931 27ZM226.561 27C226.273 27 226.053 26.928 225.901 26.784C225.749 26.632 225.673 26.412 225.673 26.124V12.768H220.873C220.585 12.768 220.365 12.696 220.213 12.552C220.061 12.4 219.985 12.18 219.985 11.892C219.985 11.604 220.061 11.384 220.213 11.232C220.365 11.08 220.585 11.004 220.873 11.004H232.249C232.537 11.004 232.753 11.08 232.897 11.232C233.049 11.384 233.125 11.604 233.125 11.892C233.125 12.18 233.049 12.4 232.897 12.552C232.753 12.696 232.537 12.768 232.249 12.768H227.437V26.124C227.437 26.396 227.361 26.612 227.209 26.772C227.057 26.924 226.841 27 226.561 27Z" fill="#111928"/>
</svg>
