<svg width="1321" height="1350" viewBox="0 0 1321 1350" fill="none" xmlns="http://www.w3.org/2000/svg">
<path d="M-224.521 842.3C-264.55 756.458 -227.411 654.418 -141.568 614.389L1030.98 67.619C1111.07 30.2741 1206.27 64.9229 1243.61 145.009L1248.47 155.432C1288.5 241.274 1251.36 343.314 1165.52 383.343L3.38981 925.253C-82.4528 965.282 -184.492 928.143 -224.521 842.3Z" fill="#00BCD4" fill-opacity="0.04"/>
<path d="M-315.521 1194.3C-355.55 1108.46 -318.411 1006.42 -232.568 966.389L939.985 419.619C1020.07 382.274 1115.27 416.923 1152.61 497.009L1157.47 507.432C1197.5 593.274 1160.36 695.313 1074.52 735.342L-87.6102 1277.25C-173.453 1317.28 -275.492 1280.14 -315.521 1194.3Z" fill="#8B8B8B" fill-opacity="0.04"/>
</svg>
